# Blender 3.6.4
# www.blender.org
mtllib Cash_Pile_S.mtl
o Cash_Pile_S
v 0.074219 0.005371 -0.027832
v 0.074219 0.005371 0.041016
v 0.074219 -0.002441 0.041016
v 0.074219 -0.002441 -0.027832
v -0.074707 0.005371 0.041016
v -0.074707 0.005371 -0.027832
v -0.074707 -0.002441 -0.027832
v -0.074707 -0.002441 0.041016
v 0.073242 0.000977 0.029297
v 0.065918 0.000977 -0.038574
v -0.081543 0.000977 -0.025391
v -0.075684 0.000977 0.042480
v 0.072266 0.002441 0.039062
v 0.076172 0.002441 -0.028809
v -0.069336 -0.000488 -0.041504
v -0.075684 0.002441 0.026367
v -0.070312 0.002930 0.041992
v -0.074219 0.002930 -0.025879
v 0.071289 0.002930 -0.038574
v 0.077148 0.002930 0.029297
v 0.066895 0.001465 0.042480
v 0.072266 0.001465 -0.025391
v -0.075684 0.001465 -0.038086
v -0.082031 0.001465 0.029785
v -0.076660 0.000488 0.026367
v -0.068359 0.000488 -0.041504
v 0.077148 0.000488 -0.028809
v 0.071289 0.000488 0.039551
v -0.088379 0.000000 0.026367
v -0.080078 0.000000 -0.041504
v 0.065430 0.000000 -0.028809
v 0.059570 0.000000 0.039551
v -0.081055 0.000488 0.026367
v -0.072754 0.000488 -0.041504
v 0.072754 0.000488 -0.028809
v 0.066895 0.000488 0.039551
v 0.074219 -0.002441 -0.027832
v 0.074219 -0.002441 0.041016
v 0.024902 0.000000 0.041016
v 0.024902 0.000000 -0.027832
v -0.024902 0.000000 0.041016
v -0.024902 0.000000 -0.027832
v -0.074707 -0.002441 0.041016
v -0.074707 -0.002441 -0.027832
v 0.074219 -0.002441 0.041016
v 0.074219 0.005371 0.041016
v 0.024902 0.003418 0.041016
v 0.024902 0.000000 0.041016
v -0.024902 0.003418 0.041016
v -0.024902 0.000000 0.041016
v -0.074707 0.005371 0.041016
v -0.074707 -0.002441 0.041016
v -0.074707 -0.002441 -0.027832
v -0.074707 0.005371 -0.027832
v -0.024902 0.003418 -0.027832
v -0.024902 0.000000 -0.027832
v 0.024902 0.003418 -0.027832
v 0.024902 0.000000 -0.027832
v 0.074219 0.005371 -0.027832
v 0.074219 -0.002441 -0.027832
v -0.074707 0.005371 -0.027832
v -0.074707 0.005371 0.041016
v -0.024902 0.003418 0.041016
v -0.024902 0.003418 -0.027832
v 0.024902 0.003418 0.041016
v 0.024902 0.003418 -0.027832
v 0.074219 0.005371 0.041016
v 0.074219 0.005371 -0.027832
vn 1.0000 -0.0039 -0.0000
vn 1.0000 -0.0000 -0.0000
vn 1.0000 -0.0078 -0.0000
vn -1.0000 -0.0039 -0.0000
vn -1.0000 -0.0000 -0.0000
vn -1.0000 -0.0078 -0.0000
vn -0.0000 1.0000 -0.0000
vn -0.0078 0.9997 -0.0234
vn -0.0196 0.9998 -0.0001
vn 0.0037 0.9991 -0.0428
vn -0.0000 -1.0000 -0.0000
vn -0.0468 -0.9989 -0.0000
vn -0.0469 -0.9989 -0.0000
vn -0.0312 -0.9995 -0.0000
vn -0.0156 -0.9999 -0.0000
vn 0.0156 -0.9999 -0.0000
vn 0.0312 -0.9995 -0.0000
vn 0.0468 -0.9989 -0.0000
vn 0.0469 -0.9989 -0.0000
vn -0.0000 -0.0000 1.0000
vn -0.0000 -0.0000 -1.0000
vn 0.0468 0.9989 -0.0000
vn 0.0312 0.9995 -0.0000
vn 0.0156 0.9999 -0.0000
vn -0.0156 0.9999 -0.0000
vn -0.0312 0.9995 -0.0000
vn -0.0469 0.9989 -0.0000
vt 0.877518 0.159500
vt 0.877502 0.568863
vt 0.843857 0.568863
vt 0.843857 0.159500
vt 0.877518 0.568848
vt 0.838837 0.563766
vt 0.838837 0.997650
vt 0.002548 0.997650
vt 0.002548 0.563766
vt 0.838303 0.565170
vt 0.838257 0.999039
vt 0.002213 0.998428
vt 0.001984 0.565155
vt 0.001404 0.562469
vt 0.001404 0.158432
vt 0.281693 0.158432
vt 0.281693 0.562469
vt 0.560806 0.158432
vt 0.560806 0.562469
vt 0.839432 0.158432
vt 0.839432 0.562469
vt -0.000183 0.154724
vt 0.006653 0.121109
vt 0.332611 0.138596
vt 0.332550 0.154724
vt 0.663513 0.138641
vt 0.665268 0.154724
vt 0.998276 0.120895
vt 0.997986 0.154724
vt 0.006653 0.121094
vt 0.332626 0.138596
vt 0.663528 0.138641
vt 0.008820 0.995483
vt 0.008820 0.562317
vt 0.285400 0.562332
vt 0.285400 0.995483
vt 0.557114 0.562347
vt 0.557114 0.995483
vt 0.832062 0.562332
vt 0.832062 0.995499
s 1
g Cash_Pile_S_100_dollar
usemtl 100_dollar
f 1/1/1 2/2/2 3/3/1
f 3/3/1 4/4/3 1/1/1
f 5/1/4 6/5/5 7/3/4
f 7/3/4 8/4/6 5/1/4
f 9/6/7 10/7/7 11/8/7
f 11/8/7 12/9/7 9/6/7
f 13/10/8 14/11/9 15/12/8
f 15/12/8 16/13/10 13/10/8
f 17/6/11 18/7/11 19/8/11
f 19/8/11 20/9/11 17/6/11
f 21/6/7 22/7/7 23/8/7
f 23/8/7 24/9/7 21/6/7
f 25/6/11 26/7/11 27/8/11
f 27/8/11 28/9/11 25/6/11
f 29/6/11 30/7/11 31/8/11
f 31/8/11 32/9/11 29/6/11
f 33/6/11 34/7/11 35/8/11
f 35/8/11 36/9/11 33/6/11
f 37/14/12 38/15/13 39/16/14
f 39/16/14 40/17/15 37/14/12
f 40/17/15 39/16/14 41/18/16
f 41/18/16 42/19/17 40/17/15
f 42/19/17 41/18/16 43/20/18
f 43/20/18 44/21/19 42/19/17
f 45/22/20 46/23/20 47/24/20
f 47/24/20 48/25/20 45/22/20
f 48/25/20 47/24/20 49/26/20
f 49/26/20 50/27/20 48/25/20
f 50/27/20 49/26/20 51/28/20
f 51/28/20 52/29/20 50/27/20
f 53/22/21 54/30/21 55/31/21
f 55/31/21 56/25/21 53/22/21
f 56/25/21 55/31/21 57/32/21
f 57/32/21 58/27/21 56/25/21
f 58/27/21 57/32/21 59/28/21
f 59/28/21 60/29/21 58/27/21
f 61/33/22 62/34/22 63/35/23
f 63/35/23 64/36/24 61/33/22
f 64/36/24 63/35/23 65/37/25
f 65/37/25 66/38/26 64/36/24
f 66/38/26 65/37/25 67/39/27
f 67/39/27 68/40/27 66/38/26
