# Blender 3.6.4
# www.blender.org
mtllib Cash_Pile_L.mtl
o Cash_Pile_L
v 0.074219 0.036133 -0.027832
v 0.074219 0.036133 0.041016
v 0.074219 -0.002441 0.041016
v 0.074219 -0.002441 -0.027832
v -0.074707 0.036133 0.041016
v -0.074707 0.036133 -0.027832
v -0.074707 -0.002441 -0.027832
v -0.074707 -0.002441 0.041016
v 0.066895 0.015625 0.042480
v 0.072266 0.015625 -0.025391
v -0.075684 0.015625 -0.038086
v -0.082031 0.015625 0.029785
v 0.072266 0.020996 0.039062
v 0.076172 0.020996 -0.028809
v -0.069336 0.020996 -0.041504
v -0.075684 0.020996 0.026367
v 0.070312 0.023926 0.036133
v 0.069336 0.023926 -0.032227
v -0.079102 0.023926 -0.031738
v -0.079102 0.023926 0.036133
v 0.073242 0.002930 0.029297
v 0.065918 0.002930 -0.038574
v -0.081543 0.002930 -0.025391
v -0.075684 0.002930 0.042480
v 0.072266 0.024414 0.039062
v 0.076172 0.024414 -0.028809
v -0.069336 0.024414 -0.041504
v -0.075684 0.024414 0.026367
v 0.072266 0.007812 0.039062
v 0.076172 0.007812 -0.028809
v -0.069336 0.007812 -0.041504
v -0.075684 0.007812 0.026367
v -0.070312 0.004883 0.041992
v -0.074219 0.004883 -0.025879
v 0.071289 0.004883 -0.038574
v 0.077148 0.004883 0.029297
v -0.076660 0.015137 0.026367
v -0.068359 0.015137 -0.041504
v 0.077148 0.015137 -0.028809
v 0.071289 0.015137 0.039551
v 0.067871 0.025391 0.047363
v 0.071777 0.025391 -0.020508
v -0.073730 0.025391 -0.033691
v -0.080078 0.025391 0.034668
v -0.078613 0.018555 0.019531
v -0.064453 0.018555 -0.047363
v 0.079102 0.018555 -0.021973
v 0.067383 0.018555 0.045410
v 0.066895 0.006836 0.042480
v 0.072266 0.006836 -0.025391
v -0.075684 0.006836 -0.038086
v -0.082031 0.006836 0.029785
v -0.076660 0.006348 0.026367
v -0.068359 0.006348 -0.041504
v 0.077148 0.006348 -0.028809
v 0.071289 0.006348 0.039551
v -0.076660 0.013184 0.026367
v -0.068359 0.013184 -0.041504
v 0.077148 0.013184 -0.028809
v 0.071289 0.013184 0.039551
v -0.071289 0.016113 0.026367
v -0.063477 0.016113 -0.041504
v 0.082031 0.016113 -0.028809
v 0.076172 0.016113 0.039551
v -0.069336 0.019043 0.019531
v -0.055664 0.019043 -0.047363
v 0.088379 0.019043 -0.021973
v 0.076660 0.019043 0.045410
v 0.077637 0.026367 0.047363
v 0.081543 0.026367 -0.020508
v -0.063965 0.026367 -0.033691
v -0.070312 0.026367 0.034668
v 0.083496 0.027344 0.032715
v 0.081055 0.027344 -0.035156
v -0.064941 0.027344 -0.035645
v -0.064941 0.027344 0.033203
v -0.088379 0.005859 0.026367
v -0.080078 0.005859 -0.041504
v 0.065430 0.005859 -0.028809
v 0.059570 0.005859 0.039551
v -0.081055 0.003906 0.026367
v -0.072754 0.003906 -0.041504
v 0.072754 0.003906 -0.028809
v 0.066895 0.003906 0.039551
v 0.074219 -0.002441 -0.027832
v 0.074219 -0.002441 0.041016
v 0.024902 0.000000 0.041016
v 0.024902 0.000000 -0.027832
v -0.024902 0.000000 0.041016
v -0.024902 0.000000 -0.027832
v -0.074707 -0.002441 0.041016
v -0.074707 -0.002441 -0.027832
v 0.074219 -0.002441 0.041016
v 0.074219 0.036133 0.041016
v 0.024902 0.033691 0.041016
v 0.024902 0.000000 0.041016
v -0.024902 0.033691 0.041016
v -0.024902 0.000000 0.041016
v -0.074707 0.036133 0.041016
v -0.074707 -0.002441 0.041016
v -0.074707 -0.002441 -0.027832
v -0.074707 0.036133 -0.027832
v -0.024902 0.033691 -0.027832
v -0.024902 0.000000 -0.027832
v 0.024902 0.033691 -0.027832
v 0.024902 0.000000 -0.027832
v 0.074219 0.036133 -0.027832
v 0.074219 -0.002441 -0.027832
v -0.074707 0.036133 -0.027832
v -0.074707 0.036133 0.041016
v -0.024902 0.033691 0.041016
v -0.024902 0.033691 -0.027832
v 0.024902 0.033691 0.041016
v 0.024902 0.033691 -0.027832
v 0.074219 0.036133 0.041016
v 0.074219 0.036133 -0.027832
vn 1.0000 -0.0000 -0.0000
vn -1.0000 -0.0000 -0.0000
vn -0.0000 1.0000 -0.0000
vn -0.0000 -1.0000 -0.0000
vn -0.0468 -0.9989 -0.0000
vn -0.0469 -0.9989 -0.0000
vn -0.0312 -0.9995 -0.0000
vn -0.0156 -0.9999 -0.0000
vn 0.0156 -0.9999 -0.0000
vn 0.0312 -0.9995 -0.0000
vn 0.0468 -0.9989 -0.0000
vn 0.0469 -0.9989 -0.0000
vn -0.0000 -0.0000 1.0000
vn -0.0000 -0.0000 -1.0000
vn 0.0468 0.9989 -0.0000
vn 0.0469 0.9989 -0.0000
vn 0.0312 0.9995 -0.0000
vn 0.0156 0.9999 -0.0000
vn -0.0156 0.9999 -0.0000
vn -0.0312 0.9995 -0.0000
vn -0.0468 0.9989 -0.0000
vn -0.0469 0.9989 -0.0000
vt 0.994980 0.159500
vt 0.994980 0.568863
vt 0.843857 0.568863
vt 0.843857 0.159500
vt 0.838837 0.563766
vt 0.838837 0.997650
vt 0.002548 0.997650
vt 0.002548 0.563766
vt 0.001404 0.562469
vt 0.001404 0.158432
vt 0.281693 0.158432
vt 0.281693 0.562469
vt 0.560806 0.158432
vt 0.560806 0.562469
vt 0.839432 0.158432
vt 0.839432 0.562469
vt -0.000183 0.154724
vt -0.000183 0.002853
vt 0.332535 0.002853
vt 0.332550 0.154724
vt 0.665253 0.002838
vt 0.665268 0.154724
vt 0.997971 0.002838
vt 0.997986 0.154724
vt 0.001404 0.995483
vt 0.001404 0.562332
vt 0.281693 0.562332
vt 0.281693 0.995483
vt 0.560806 0.562332
vt 0.560806 0.995483
vt 0.839432 0.562332
vt 0.839432 0.995483
s 1
g Cash_Pile_L_100_dollar
usemtl 100_dollar
f 1/1/1 2/2/1 3/3/1
f 3/3/1 4/4/1 1/1/1
f 5/1/2 6/2/2 7/3/2
f 7/3/2 8/4/2 5/1/2
f 9/5/3 10/6/3 11/7/3
f 11/7/3 12/8/3 9/5/3
f 13/5/3 14/6/3 15/7/3
f 15/7/3 16/8/3 13/5/3
f 17/5/3 18/6/3 19/7/3
f 19/7/3 20/8/3 17/5/3
f 21/5/3 22/6/3 23/7/3
f 23/7/3 24/8/3 21/5/3
f 25/5/3 26/6/3 27/7/3
f 27/7/3 28/8/3 25/5/3
f 29/5/3 30/6/3 31/7/3
f 31/7/3 32/8/3 29/5/3
f 33/5/4 34/6/4 35/7/4
f 35/7/4 36/8/4 33/5/4
f 37/5/4 38/6/4 39/7/4
f 39/7/4 40/8/4 37/5/4
f 41/5/3 42/6/3 43/7/3
f 43/7/3 44/8/3 41/5/3
f 45/5/4 46/6/4 47/7/4
f 47/7/4 48/8/4 45/5/4
f 49/5/3 50/6/3 51/7/3
f 51/7/3 52/8/3 49/5/3
f 53/5/4 54/6/4 55/7/4
f 55/7/4 56/8/4 53/5/4
f 57/5/4 58/6/4 59/7/4
f 59/7/4 60/8/4 57/5/4
f 61/5/4 62/6/4 63/7/4
f 63/7/4 64/8/4 61/5/4
f 65/5/4 66/6/4 67/7/4
f 67/7/4 68/8/4 65/5/4
f 69/5/3 70/6/3 71/7/3
f 71/7/3 72/8/3 69/5/3
f 73/5/3 74/6/3 75/7/3
f 75/7/3 76/8/3 73/5/3
f 77/5/4 78/6/4 79/7/4
f 79/7/4 80/8/4 77/5/4
f 81/5/4 82/6/4 83/7/4
f 83/7/4 84/8/4 81/5/4
f 85/9/5 86/10/6 87/11/7
f 87/11/7 88/12/8 85/9/5
f 88/12/8 87/11/7 89/13/9
f 89/13/9 90/14/10 88/12/8
f 90/14/10 89/13/9 91/15/11
f 91/15/11 92/16/12 90/14/10
f 93/17/13 94/18/13 95/19/13
f 95/19/13 96/20/13 93/17/13
f 96/20/13 95/19/13 97/21/13
f 97/21/13 98/22/13 96/20/13
f 98/22/13 97/21/13 99/23/13
f 99/23/13 100/24/13 98/22/13
f 101/17/14 102/18/14 103/19/14
f 103/19/14 104/20/14 101/17/14
f 104/20/14 103/19/14 105/21/14
f 105/21/14 106/22/14 104/20/14
f 106/22/14 105/21/14 107/23/14
f 107/23/14 108/24/14 106/22/14
f 109/25/15 110/26/16 111/27/17
f 111/27/17 112/28/18 109/25/15
f 112/28/18 111/27/17 113/29/19
f 113/29/19 114/30/20 112/28/18
f 114/30/20 113/29/19 115/31/21
f 115/31/21 116/32/22 114/30/20
